# xmcd CD database file
#
# Track frame offsets:
#	150
#	24790
#	48217
#	74680
#
# Disc length: 1056 seconds
#
# Revision: 0
# Processed by: cddbd v1.5PL3 Copyright (c) Steve Scherf et al.
# Submitted via: CDex 1.51
#
DISCID=2b041e04
DTITLE=D-LOOP - Destination
DYEAR=2004
DGENRE=JPop
TTITLE0=Destination 〜single version〜
TTITLE1=bless our stars
TTITLE2=No One Else But You 〜single version〜
TTITLE3=Promotion Track (Just place of Love - Love me tender - GLORY DAYS)
EXTD=YEAR: 2004
EXTT0=
EXTT1=
EXTT2=
EXTT3=
PLAYORDER=
